<svg width="102" height="34" viewBox="0 0 102 34" fill="none" xmlns="http://www.w3.org/2000/svg">
<line y1="-1.5" x2="31.2166" y2="-1.5" transform="matrix(0.000784972 -1 1 0.000889533 100.997 31.2255)" stroke="black" stroke-width="3"/>
<line y1="-1.5" x2="9.99727" y2="-1.5" transform="matrix(-1 -0.000889533 0.000784972 -1 101.022 0.00878906)" stroke="black" stroke-width="3"/>
<line y1="-1.5" x2="9.99727" y2="-1.5" transform="matrix(-1 -0.000889533 0.000784972 -1 100.998 30.2185)" stroke="black" stroke-width="3"/>
<path d="M37.2454 15.3243C37.2454 16.8243 37.0554 18.2543 36.6754 19.6143C36.2954 20.9543 35.7154 22.1343 34.9354 23.1543C34.1354 24.1743 33.1154 24.9843 31.8754 25.5843C30.6354 26.1843 29.1454 26.4843 27.4054 26.4843C25.7854 26.4843 24.3554 26.2043 23.1154 25.6443C21.8954 25.0643 20.8754 24.2743 20.0554 23.2743C19.2354 22.2743 18.6154 21.0943 18.1954 19.7343C17.7754 18.3743 17.5654 16.9043 17.5654 15.3243C17.5654 13.8643 17.7754 12.4643 18.1954 11.1243C18.6154 9.78433 19.2354 8.60433 20.0554 7.58433C20.8754 6.56433 21.8954 5.75433 23.1154 5.15433C24.3554 4.55433 25.7854 4.25433 27.4054 4.25433C29.0254 4.25433 30.4454 4.54433 31.6654 5.12433C32.9054 5.68433 33.9354 6.46433 34.7554 7.46433C35.5754 8.46433 36.1954 9.63433 36.6154 10.9743C37.0354 12.3143 37.2454 13.7643 37.2454 15.3243ZM33.9754 15.2943C33.9754 14.1743 33.8354 13.1143 33.5554 12.1143C33.2954 11.0943 32.8954 10.2043 32.3554 9.44433C31.8154 8.70433 31.1354 8.11433 30.3154 7.67433C29.4954 7.21433 28.5254 6.98433 27.4054 6.98433C26.4054 6.98433 25.4954 7.19433 24.6754 7.61433C23.8754 8.03433 23.1954 8.61433 22.6354 9.35433C22.0554 10.1143 21.6154 11.0043 21.3154 12.0243C21.0154 13.0243 20.8654 14.1243 20.8654 15.3243C20.8654 16.4443 20.9854 17.5143 21.2254 18.5343C21.4854 19.5543 21.8854 20.4543 22.4254 21.2343C22.9654 22.0143 23.6454 22.6443 24.4654 23.1243C25.2854 23.5843 26.2654 23.8143 27.4054 23.8143C28.5054 23.8143 29.4654 23.6043 30.2854 23.1843C31.1054 22.7443 31.7954 22.1343 32.3554 21.3543C32.8954 20.5943 33.2954 19.6943 33.5554 18.6543C33.8354 17.6143 33.9754 16.4943 33.9754 15.2943Z" fill="#102A42"/>
<path d="M36.6754 19.6143L37.1564 19.7507L37.1569 19.7489L36.6754 19.6143ZM34.9354 23.1543L35.3288 23.4629L35.3325 23.4581L34.9354 23.1543ZM31.8754 25.5843L31.6576 25.1343L31.6576 25.1343L31.8754 25.5843ZM23.1154 25.6443L22.9006 26.096L22.9096 26.1L23.1154 25.6443ZM20.0554 23.2743L19.6687 23.5914L19.6687 23.5914L20.0554 23.2743ZM18.1954 19.7343L18.6731 19.5868L18.6731 19.5868L18.1954 19.7343ZM18.1954 11.1243L17.7183 10.9748L17.7183 10.9748L18.1954 11.1243ZM20.0554 7.58433L19.6657 7.27105L19.6657 7.27105L20.0554 7.58433ZM23.1154 5.15433L22.8976 4.70424L22.8947 4.70566L23.1154 5.15433ZM31.6654 5.12433L31.4506 5.57598L31.4596 5.58002L31.6654 5.12433ZM34.7554 7.46433L34.3687 7.78137L34.3687 7.78137L34.7554 7.46433ZM36.6154 10.9743L37.0925 10.8248L37.0925 10.8248L36.6154 10.9743ZM33.5554 12.1143L33.0707 12.2379L33.0739 12.2491L33.5554 12.1143ZM32.3554 9.44433L32.763 9.1547L32.7593 9.1496L32.3554 9.44433ZM30.3154 7.67433L30.0707 8.11048L30.079 8.11491L30.3154 7.67433ZM24.6754 7.61433L24.4474 7.16929L24.443 7.17163L24.6754 7.61433ZM22.6354 9.35433L23.0328 9.65767L23.0341 9.65605L22.6354 9.35433ZM21.3154 12.0243L21.7943 12.168L21.7951 12.1654L21.3154 12.0243ZM21.2254 18.5343L20.7386 18.6489L20.7409 18.6578L21.2254 18.5343ZM22.4254 21.2343L22.0143 21.5189L22.0143 21.5189L22.4254 21.2343ZM24.4654 23.1243L24.2127 23.5559L24.2207 23.5604L24.4654 23.1243ZM30.2854 23.1843L30.5134 23.6294L30.5218 23.6249L30.2854 23.1843ZM32.3554 21.3543L32.7615 21.6459L32.763 21.6439L32.3554 21.3543ZM33.5554 18.6543L33.0725 18.5243L33.0703 18.5331L33.5554 18.6543ZM36.7454 15.3243C36.7454 16.7817 36.5608 18.1662 36.1938 19.4798L37.1569 19.7489C37.5499 18.3424 37.7454 16.867 37.7454 15.3243H36.7454ZM36.1943 19.4779C35.83 20.7625 35.2768 21.8847 34.5382 22.8506L35.3325 23.4581C36.1539 22.384 36.7607 21.1461 37.1564 19.7507L36.1943 19.4779ZM34.5419 22.8458C33.7919 23.8021 32.8334 24.5653 31.6576 25.1343L32.0932 26.0344C33.3973 25.4034 34.4789 24.5466 35.3288 23.4629L34.5419 22.8458ZM31.6576 25.1343C30.5009 25.6939 29.0892 25.9843 27.4054 25.9843V26.9843C29.2015 26.9843 30.7698 26.6747 32.0932 26.0344L31.6576 25.1343ZM27.4054 25.9843C25.843 25.9843 24.4853 25.7144 23.3212 25.1886L22.9096 26.1C24.2254 26.6943 25.7277 26.9843 27.4054 26.9843V25.9843ZM23.33 25.1928C22.1735 24.6429 21.2132 23.8978 20.442 22.9573L19.6687 23.5914C20.5375 24.6509 21.6172 25.4857 22.9007 26.0959L23.33 25.1928ZM20.442 22.9573C19.667 22.0122 19.0759 20.8912 18.6731 19.5868L17.7176 19.8819C18.1548 21.2975 18.8037 22.5365 19.6687 23.5914L20.442 22.9573ZM18.6731 19.5868C18.2694 18.2795 18.0654 16.8598 18.0654 15.3243H17.0654C17.0654 16.9489 17.2813 18.4691 17.7176 19.8819L18.6731 19.5868ZM18.0654 15.3243C18.0654 13.913 18.2682 12.5636 18.6725 11.2739L17.7183 10.9748C17.2825 12.3651 17.0654 13.8156 17.0654 15.3243H18.0654ZM18.6725 11.2739C19.0752 9.98905 19.6669 8.86551 20.4451 7.89761L19.6657 7.27105C18.8038 8.34315 18.1555 9.57961 17.7183 10.9748L18.6725 11.2739ZM20.4451 7.89761C21.2175 6.93677 22.179 6.17205 23.336 5.60301L22.8947 4.70566C21.6118 5.33661 20.5332 6.19188 19.6657 7.27105L20.4451 7.89761ZM23.3332 5.60441C24.4943 5.04256 25.8476 4.75433 27.4054 4.75433V3.75433C25.7231 3.75433 24.2164 4.0661 22.8976 4.70425L23.3332 5.60441ZM27.4054 4.75433C28.9657 4.75433 30.3098 5.03351 31.4507 5.5759L31.8801 4.67276C30.5809 4.05515 29.085 3.75433 27.4054 3.75433V4.75433ZM31.4596 5.58002C32.6332 6.11003 33.6001 6.84399 34.3687 7.78137L35.142 7.14729C34.2707 6.08467 33.1776 5.25863 31.8712 4.66865L31.4596 5.58002ZM34.3687 7.78137C35.1448 8.72774 35.7358 9.8397 36.1383 11.1239L37.0925 10.8248C36.655 9.42896 36.006 8.20092 35.142 7.14729L34.3687 7.78137ZM36.1383 11.1239C36.5415 12.4104 36.7454 13.8095 36.7454 15.3243H37.7454C37.7454 13.7192 37.5292 12.2182 37.0925 10.8248L36.1383 11.1239ZM34.4754 15.2943C34.4754 14.1323 34.3301 13.0267 34.0369 11.9795L33.0739 12.2491C33.3407 13.202 33.4754 14.2163 33.4754 15.2943H34.4754ZM34.0399 11.9908C33.7666 10.9188 33.3429 9.97094 32.763 9.15473L31.9478 9.73393C32.4478 10.4377 32.8241 11.2698 33.0709 12.2378L34.0399 11.9908ZM32.7593 9.1496C32.1744 8.34805 31.4368 7.70861 30.5518 7.23375L30.079 8.11491C30.834 8.52005 31.4564 9.06061 31.9515 9.73907L32.7593 9.1496ZM30.56 7.23826C29.6522 6.72899 28.5946 6.48433 27.4054 6.48433V7.48433C28.4561 7.48433 29.3386 7.69967 30.0707 8.1104L30.56 7.23826ZM27.4054 6.48433C26.333 6.48433 25.3439 6.71015 24.4474 7.16931L24.9033 8.05935C25.6469 7.67851 26.4777 7.48433 27.4054 7.48433V6.48433ZM24.443 7.17163C23.576 7.62676 22.8398 8.25559 22.2367 9.05261L23.0341 9.65605C23.5509 8.97307 24.1747 8.4419 24.9078 8.05703L24.443 7.17163ZM22.2379 9.05099C21.6169 9.86475 21.151 10.8111 20.8357 11.8832L21.7951 12.1654C22.0797 11.1975 22.4939 10.3639 23.0328 9.65767L22.2379 9.05099ZM20.8365 11.8807C20.5206 12.9336 20.3654 14.0828 20.3654 15.3243H21.3654C21.3654 14.1659 21.5102 13.115 21.7943 12.168L20.8365 11.8807ZM20.3654 15.3243C20.3654 16.4803 20.4892 17.5888 20.7387 18.6489L21.7121 18.4198C21.4815 17.4398 21.3654 16.4084 21.3654 15.3243H20.3654ZM20.7409 18.6578C21.014 19.7292 21.4369 20.685 22.0143 21.5189L22.8365 20.9497C22.3338 20.2237 21.9568 19.3795 21.7099 18.4108L20.7409 18.6578ZM22.0143 21.5189C22.5958 22.359 23.33 23.0391 24.2128 23.5558L24.718 22.6928C23.9608 22.2496 23.3349 21.6697 22.8365 20.9497L22.0143 21.5189ZM24.2207 23.5604C25.1298 24.0704 26.1978 24.3143 27.4054 24.3143V23.3143C26.3329 23.3143 25.4409 23.0983 24.71 22.6883L24.2207 23.5604ZM27.4054 24.3143C28.5694 24.3143 29.6103 24.0919 30.5133 23.6294L30.0574 22.7393C29.3204 23.1168 28.4414 23.3143 27.4054 23.3143V24.3143ZM30.5218 23.6249C31.4112 23.1477 32.1585 22.4859 32.7615 21.6459L31.9492 21.0627C31.4322 21.7828 30.7996 22.341 30.049 22.7438L30.5218 23.6249ZM32.763 21.6439C33.344 20.8261 33.7676 19.8671 34.0404 18.7756L33.0703 18.5331C32.8232 19.5216 32.4467 20.3625 31.9478 21.0647L32.763 21.6439ZM34.0382 18.7843C34.3308 17.6974 34.4754 16.5333 34.4754 15.2943H33.4754C33.4754 16.4554 33.3399 17.5312 33.0726 18.5243L34.0382 18.7843ZM53.0172 26.1363V26.6363H53.5172V26.1363H53.0172ZM40.7292 26.1363H40.2292V26.6363H40.7292V26.1363ZM40.7292 24.0483L40.3127 23.7717L40.2292 23.8974V24.0483H40.7292ZM49.2732 11.1843L49.6897 11.461L50.2055 10.6843H49.2732V11.1843ZM41.1372 11.1843H40.6372V11.6843H41.1372V11.1843ZM41.1372 8.88033V8.38033H40.6372V8.88033H41.1372ZM52.4172 8.88033H52.9172V8.38033H52.4172V8.88033ZM52.4172 10.9683L52.8344 11.2439L52.9172 11.1185V10.9683H52.4172ZM43.9212 23.8323L43.5039 23.5568L42.9917 24.3323H43.9212V23.8323ZM53.0172 23.8323H53.5172V23.3323H53.0172V23.8323ZM53.0172 25.6363H40.7292V26.6363H53.0172V25.6363ZM41.2292 26.1363V24.0483H40.2292V26.1363H41.2292ZM41.1457 24.325L49.6897 11.461L48.8567 10.9077L40.3127 23.7717L41.1457 24.325ZM49.2732 10.6843H41.1372V11.6843H49.2732V10.6843ZM41.6372 11.1843V8.88033H40.6372V11.1843H41.6372ZM41.1372 9.38033H52.4172V8.38033H41.1372V9.38033ZM51.9172 8.88033V10.9683H52.9172V8.88033H51.9172ZM51.9999 10.6928L43.5039 23.5568L44.3384 24.1079L52.8344 11.2439L51.9999 10.6928ZM43.9212 24.3323H53.0172V23.3323H43.9212V24.3323ZM52.5172 23.8323V26.1363H53.5172V23.8323H52.5172ZM70.3941 8.90433L70.819 9.16788L71.2926 8.40433H70.3941V8.90433ZM64.5141 18.3843L64.0892 18.1208L64.0141 18.2419V18.3843H64.5141ZM64.5141 26.1843V26.6843H65.0141V26.1843H64.5141ZM61.8741 26.1843H61.3741V26.6843H61.8741V26.1843ZM61.8741 18.3843H62.3741V18.2428L62.3 18.1223L61.8741 18.3843ZM56.0421 8.90433V8.40433H55.1475L55.6162 9.16632L56.0421 8.90433ZM59.0661 8.90433L59.4939 8.64557L59.348 8.40433H59.0661V8.90433ZM63.2901 15.8883L62.8623 16.1471L63.2877 16.8505L63.7166 16.1492L63.2901 15.8883ZM67.5621 8.90433V8.40433H67.2818L67.1356 8.64343L67.5621 8.90433ZM69.9692 8.64078L64.0892 18.1208L64.939 18.6479L70.819 9.16788L69.9692 8.64078ZM64.0141 18.3843V26.1843H65.0141V18.3843H64.0141ZM64.5141 25.6843H61.8741V26.6843H64.5141V25.6843ZM62.3741 26.1843V18.3843H61.3741V26.1843H62.3741ZM62.3 18.1223L56.468 8.64234L55.6162 9.16632L61.4482 18.6463L62.3 18.1223ZM56.0421 9.40433H59.0661V8.40433H56.0421V9.40433ZM58.6383 9.16309L62.8623 16.1471L63.7179 15.6296L59.4939 8.64557L58.6383 9.16309ZM63.7166 16.1492L67.9886 9.16523L67.1356 8.64343L62.8636 15.6274L63.7166 16.1492ZM67.5621 9.40433H70.3941V8.40433H67.5621V9.40433ZM86.9494 8.90433L87.3743 9.16788L87.8479 8.40433H86.9494V8.90433ZM81.0694 18.3843L80.6445 18.1208L80.5694 18.2419V18.3843H81.0694ZM81.0694 26.1843V26.6843H81.5694V26.1843H81.0694ZM78.4294 26.1843H77.9294V26.6843H78.4294V26.1843ZM78.4294 18.3843H78.9294V18.2428L78.8553 18.1223L78.4294 18.3843ZM72.5974 8.90433V8.40433H71.7028L72.1715 9.16632L72.5974 8.90433ZM75.6214 8.90433L76.0493 8.64557L75.9033 8.40433H75.6214V8.90433ZM79.8454 15.8883L79.4176 16.1471L79.843 16.8505L80.2719 16.1492L79.8454 15.8883ZM84.1174 8.90433V8.40433H83.8371L83.6909 8.64343L84.1174 8.90433ZM86.5245 8.64078L80.6445 18.1208L81.4943 18.6479L87.3743 9.16788L86.5245 8.64078ZM80.5694 18.3843V26.1843H81.5694V18.3843H80.5694ZM81.0694 25.6843H78.4294V26.6843H81.0694V25.6843ZM78.9294 26.1843V18.3843H77.9294V26.1843H78.9294ZM78.8553 18.1223L73.0233 8.64234L72.1715 9.16632L78.0036 18.6463L78.8553 18.1223ZM72.5974 9.40433H75.6214V8.40433H72.5974V9.40433ZM75.1936 9.16309L79.4176 16.1471L80.2733 15.6296L76.0493 8.64557L75.1936 9.16309ZM80.2719 16.1492L84.5439 9.16523L83.6909 8.64343L79.4189 15.6274L80.2719 16.1492ZM84.1174 9.40433H86.9494V8.40433H84.1174V9.40433Z" fill="#102A42"/>
<line y1="-1.5" x2="30.9755" y2="-1.5" transform="matrix(0.00148062 0.999999 -0.999999 0.00137606 1.00154 2.03967)" stroke="black" stroke-width="3"/>
<line y1="-1.5" x2="10.9526" y2="-1.5" transform="matrix(0.999999 -0.00137606 0.00148062 0.999999 1.04741 33.0151)" stroke="black" stroke-width="3"/>
<line y1="-1.5" x2="10.9526" y2="-1.5" transform="matrix(0.999999 -0.00137606 0.00148062 0.999999 1.00302 3.03894)" stroke="black" stroke-width="3"/>
</svg>
