<svg width="104" height="32" viewBox="0 0 104 32" fill="none" xmlns="http://www.w3.org/2000/svg">
<path d="M27.0492 16.0909C27.0492 9.1875 23.0009 4.88352 17.4185 4.88352C11.8361 4.88352 7.78782 9.1875 7.78782 16.0909C7.78782 22.9943 11.8361 27.2983 17.4185 27.2983C23.0009 27.2983 27.0492 22.9943 27.0492 16.0909ZM24.4924 16.0909C24.4924 21.7585 21.3816 24.8267 17.4185 24.8267C13.4554 24.8267 10.3446 21.7585 10.3446 16.0909C10.3446 10.4233 13.4554 7.35511 17.4185 7.35511C21.3816 7.35511 24.4924 10.4233 24.4924 16.0909Z" fill="#102A42"/>
<path d="M27.5492 16.0909C27.5492 12.5427 26.5079 9.61531 24.7022 7.56773C22.8925 5.5156 20.3456 4.38352 17.4185 4.38352V5.38352C20.0738 5.38352 22.3422 6.40343 23.9522 8.22915C25.5663 10.0594 26.5492 12.7357 26.5492 16.0909H27.5492ZM17.4185 4.38352C14.4914 4.38352 11.9445 5.5156 10.1348 7.56773C8.32906 9.61531 7.28782 12.5427 7.28782 16.0909H8.28782C8.28782 12.7357 9.27073 10.0594 10.8848 8.22915C12.4948 6.40343 14.7632 5.38352 17.4185 5.38352V4.38352ZM7.28782 16.0909C7.28782 19.6391 8.32906 22.5665 10.1348 24.6141C11.9445 26.6662 14.4914 27.7983 17.4185 27.7983V26.7983C14.7632 26.7983 12.4948 25.7784 10.8848 23.9527C9.27073 22.1224 8.28782 19.4461 8.28782 16.0909H7.28782ZM17.4185 27.7983C20.3456 27.7983 22.8925 26.6662 24.7022 24.6141C26.5079 22.5665 27.5492 19.6391 27.5492 16.0909H26.5492C26.5492 19.4461 25.5663 22.1224 23.9522 23.9527C22.3422 25.7784 20.0738 26.7983 17.4185 26.7983V27.7983ZM23.9924 16.0909C23.9924 18.8354 23.2398 20.8936 22.063 22.2575C20.8907 23.6162 19.2638 24.3267 17.4185 24.3267V25.3267C19.5363 25.3267 21.4463 24.5031 22.8201 22.9108C24.1895 21.3237 24.9924 19.014 24.9924 16.0909H23.9924ZM17.4185 24.3267C15.5732 24.3267 13.9463 23.6162 12.774 22.2575C11.5972 20.8936 10.8446 18.8354 10.8446 16.0909H9.84464C9.84464 19.014 10.6475 21.3237 12.0169 22.9108C13.3907 24.5031 15.3007 25.3267 17.4185 25.3267V24.3267ZM10.8446 16.0909C10.8446 13.3464 11.5972 11.2882 12.774 9.92429C13.9463 8.56562 15.5732 7.85511 17.4185 7.85511V6.85511C15.3007 6.85511 13.3907 7.6787 12.0169 9.27102C10.6475 10.8581 9.84464 13.1678 9.84464 16.0909H10.8446ZM17.4185 7.85511C19.2638 7.85511 20.8907 8.56562 22.063 9.92429C23.2398 11.2882 23.9924 13.3464 23.9924 16.0909H24.9924C24.9924 13.1678 24.1895 10.8581 22.8201 9.27102C21.4463 7.6787 19.5363 6.85511 17.4185 6.85511V7.85511ZM32.8672 27H32.3672V27.5H32.8672V27ZM47.9098 27V27.5H48.4098V27H47.9098ZM47.9098 24.6562H48.4098V24.1562H47.9098V24.6562ZM36.0206 24.6562L35.6052 24.378L35.0839 25.1562H36.0206V24.6562ZM47.782 7.09943L48.1974 7.37771L48.282 7.25143V7.09943H47.782ZM47.782 5.18182H48.282V4.68182H47.782V5.18182ZM32.7394 5.18182V4.68182H32.2394V5.18182H32.7394ZM32.7394 7.52557H32.2394V8.02557H32.7394V7.52557ZM44.6286 7.52557L45.044 7.80385L45.5654 7.02557H44.6286V7.52557ZM32.8672 25.0824L32.4518 24.8041L32.3672 24.9304V25.0824H32.8672ZM32.8672 27.5H47.9098V26.5H32.8672V27.5ZM48.4098 27V24.6562H47.4098V27H48.4098ZM47.9098 24.1562H36.0206V25.1562H47.9098V24.1562ZM36.436 24.9345L48.1974 7.37771L47.3666 6.82115L35.6052 24.378L36.436 24.9345ZM48.282 7.09943V5.18182H47.282V7.09943H48.282ZM47.782 4.68182H32.7394V5.68182H47.782V4.68182ZM32.2394 5.18182V7.52557H33.2394V5.18182H32.2394ZM32.7394 8.02557H44.6286V7.02557H32.7394V8.02557ZM44.2132 7.24729L32.4518 24.8041L33.2826 25.3607L45.044 7.80385L44.2132 7.24729ZM32.3672 25.0824V27H33.3672V25.0824H32.3672ZM54.6667 5.18182V4.68182H53.7725L54.2407 5.44363L54.6667 5.18182ZM62.5502 18.0085H63.0502V17.8672L62.9762 17.7467L62.5502 18.0085ZM62.5502 27H62.0502V27.5H62.5502V27ZM65.1922 27V27.5H65.6922V27H65.1922ZM65.1922 18.0085L64.7662 17.7467L64.6922 17.8672V18.0085H65.1922ZM73.0757 5.18182L73.5017 5.44363L73.9699 4.68182H73.0757V5.18182ZM70.0502 5.18182V4.68182H69.7657L69.6203 4.92642L70.0502 5.18182ZM63.999 15.3665V15.8665H64.2836L64.4289 15.6219L63.999 15.3665ZM63.7434 15.3665L63.3135 15.6219L63.4588 15.8665H63.7434V15.3665ZM57.6922 5.18182L58.1221 4.92642L57.9767 4.68182H57.6922V5.18182ZM54.2407 5.44363L62.1242 18.2703L62.9762 17.7467L55.0926 4.92001L54.2407 5.44363ZM62.0502 18.0085V27H63.0502V18.0085H62.0502ZM62.5502 27.5H65.1922V26.5H62.5502V27.5ZM65.6922 27V18.0085H64.6922V27H65.6922ZM65.6182 18.2703L73.5017 5.44363L72.6498 4.92001L64.7662 17.7467L65.6182 18.2703ZM73.0757 4.68182H70.0502V5.68182H73.0757V4.68182ZM69.6203 4.92642L63.5692 15.1111L64.4289 15.6219L70.48 5.43721L69.6203 4.92642ZM63.999 14.8665H63.7434V15.8665H63.999V14.8665ZM64.1732 15.1111L58.1221 4.92642L57.2624 5.43721L63.3135 15.6219L64.1732 15.1111ZM57.6922 4.68182H54.6667V5.68182H57.6922V4.68182ZM78.8178 5.18182V4.68182H77.9236L78.3919 5.44363L78.8178 5.18182ZM86.7013 18.0085H87.2013V17.8672L87.1273 17.7467L86.7013 18.0085ZM86.7013 27H86.2013V27.5H86.7013V27ZM89.3434 27V27.5H89.8434V27H89.3434ZM89.3434 18.0085L88.9174 17.7467L88.8434 17.8672V18.0085H89.3434ZM97.2269 5.18182L97.6529 5.44363L98.1211 4.68182H97.2269V5.18182ZM94.2014 5.18182V4.68182H93.9168L93.7715 4.92642L94.2014 5.18182ZM88.1502 15.3665V15.8665H88.4347L88.5801 15.6219L88.1502 15.3665ZM87.8945 15.3665L87.4647 15.6219L87.61 15.8665H87.8945V15.3665ZM81.8434 5.18182L82.2732 4.92642L82.1279 4.68182H81.8434V5.18182ZM78.3919 5.44363L86.2754 18.2703L87.1273 17.7467L79.2438 4.92001L78.3919 5.44363ZM86.2013 18.0085V27H87.2013V18.0085H86.2013ZM86.7013 27.5H89.3434V26.5H86.7013V27.5ZM89.8434 27V18.0085H88.8434V27H89.8434ZM89.7694 18.2703L97.6529 5.44363L96.8009 4.92001L88.9174 17.7467L89.7694 18.2703ZM97.2269 4.68182H94.2014V5.68182H97.2269V4.68182ZM93.7715 4.92642L87.7204 15.1111L88.5801 15.6219L94.6312 5.43721L93.7715 4.92642ZM88.1502 14.8665H87.8945V15.8665H88.1502V14.8665ZM88.3244 15.1111L82.2732 4.92642L81.4135 5.43721L87.4647 15.6219L88.3244 15.1111ZM81.8434 4.68182H78.8178V5.68182H81.8434V4.68182Z" fill="#102A42"/>
</svg>
